<?xml version="1.0" encoding="UTF-8" standalone="no"?><!DOCTYPE svg PUBLIC "-//W3C//DTD SVG 1.1//EN" "http://www.w3.org/Graphics/SVG/1.1/DTD/svg11.dtd"><svg width="100%" height="100%" viewBox="0 0 197 154" version="1.1" xmlns="http://www.w3.org/2000/svg" xmlns:xlink="http://www.w3.org/1999/xlink" xml:space="preserve" xmlns:serif="http://www.serif.com/" style="fill-rule:evenodd;clip-rule:evenodd;stroke-linejoin:round;stroke-miterlimit:2;"><g id="trash"><path d="M170.14,22.471l-24.541,125.056c-0.363,1.852 -2.139,3.581 -4.389,3.586l-86.233,0.138c-2.06,0.001 -3.725,-1.395 -4.337,-2.921c-0.1,-0.249 -0.181,-0.507 -0.234,-0.771l-19.667,-98.285c-0.425,-2.135 -3.895,-19.562 -5.204,-26.712c-0.41,-2.237 0.4,-3.928 0.547,-4.236c0.218,-0.455 1.527,-3.189 5.058,-3.755c0.359,-0.058 0.724,-0.084 1.088,-0.087c3.355,-0.026 6.71,0 10.066,0c59.594,0 59.59,0.174 119.186,0.581c2.723,0.019 2.727,-0.041 3.474,0.079c2.876,0.462 4.185,2.662 4.404,3.029c0.1,0.168 0.763,1.283 0.823,2.305c0.039,0.662 -0.08,1.328 -0.041,1.991Zm-13.598,5.205c-44.418,0.272 -46.771,0.452 -93.684,0.537c-7.545,0.014 -15.09,-0.038 -22.635,-0.059l18.553,114.026l78.763,0.154l19.002,-114.659Z" style="fill:#fff;"/><path d="M81.174,120.913c-0.743,0.101 -0.757,0.06 -1.423,-0.283c-0.51,-0.263 -1.019,-0.623 -1.308,-1.119c-0.732,-1.256 -1.443,-2.589 -1.689,-4.022c-5.325,-31.058 -10.003,-62.224 -15.005,-93.336c-0.382,-2.377 0.951,-4.129 1.173,-4.421c0.463,-0.609 1.051,-1.142 1.711,-1.528c2.171,-1.271 4.242,-0.719 4.601,-0.624c2.354,0.627 3.403,2.418 3.585,2.729c1.536,2.622 0.85,2.877 11.17,96.189c0.038,0.348 0.174,1.574 -0.556,4.337c-0.147,0.555 -0.541,1.038 -0.963,1.427c-0.551,0.508 -0.554,0.551 -1.297,0.652Z" style="fill:#fff;"/><path d="M115.511,121.404c-0.688,-0.089 -0.683,-0.153 -1.151,-0.664c-1.696,-1.853 -1.364,-5.668 -1.32,-6.171c2.729,-31.378 6.038,-62.702 9.057,-94.054c0.248,-2.572 2.16,-4.045 2.473,-4.286c0.656,-0.505 1.421,-0.896 2.219,-1.113c2.626,-0.715 4.634,0.446 4.982,0.647c0.338,0.195 2.282,1.319 2.974,3.863c0.054,0.198 0.375,1.38 0.183,2.557l-15.281,93.245c-0.548,1.461 -0.94,2.992 -1.646,4.384c-0.261,0.516 -0.721,0.932 -1.208,1.245c-0.583,0.375 -0.595,0.438 -1.283,0.348Z" style="fill:#fff;"/><path d="M196.121,18.349c0,1.696 -0.032,1.779 -1.224,2.989c-2.857,2.902 -3.733,1.243 -190.665,1.178c-1.676,-0.001 -1.757,-0.039 -2.943,-1.225c-0.012,-0.012 -1.227,-2.944 -1.224,-2.952c0.406,-0.978 0.475,-2.183 1.224,-2.932c2.856,-2.856 3.708,-1.225 190.665,-1.29c0.256,-0 1.718,-0.001 2.943,1.243c1.192,1.21 1.224,1.293 1.224,2.989Z" style="fill:#fff;"/><path d="M146.391,4.8c-0.01,1.702 -0.044,1.785 -1.242,2.991c-0.749,0.754 -1.878,1.222 -2.94,1.229l-86.252,-0.608c-0.976,-0.413 -2.181,-0.49 -2.925,-1.243c-0.012,-0.012 -1.209,-2.95 -1.206,-2.959c0.412,-0.976 0.489,-2.179 1.242,-2.924c0.754,-0.745 1.881,-1.199 2.94,-1.207l86.253,0.451c0.976,0.42 2.186,0.502 2.925,1.265c1.183,1.221 1.216,1.303 1.206,3.006Z" style="fill:#fff;"/></g></svg>